<svg width="431" height="586" viewBox="0 0 431 586" fill="none" xmlns="http://www.w3.org/2000/svg">
<path d="M173 362L181.262 388.738H208L186.369 405.262L194.631 432L173 415.475L151.369 432L159.631 405.262L138 388.738H164.738L173 362Z" fill="#EDF5E1"/>
<path d="M333 279L341.262 305.738H368L346.369 322.262L354.631 349L333 332.475L311.369 349L319.631 322.262L298 305.738H324.738L333 279Z" fill="#EDF5E1"/>
<path d="M331 404L341.623 438.377H376L348.188 459.623L358.812 494L331 472.754L303.189 494L313.812 459.623L286 438.377H320.377L331 404Z" fill="#EDF5E1"/>
<path d="M212 494L220.262 520.738H247L225.369 537.262L233.631 564L212 547.475L190.369 564L198.631 537.262L177 520.738H203.738L212 494Z" fill="#EDF5E1"/>
<path d="M396 165L404.262 191.738H431L409.369 208.262L417.631 235L396 218.475L374.369 235L382.631 208.262L361 191.738H387.738L396 165Z" fill="#EDF5E1"/>
<path d="M120 474L124.721 489.279H140L127.639 498.721L132.361 514L120 504.557L107.639 514L112.361 498.721L100 489.279H115.279L120 474Z" fill="#EDF5E1"/>
<path d="M288 546L292.721 561.279H308L295.639 570.721L300.361 586L288 576.557L275.639 586L280.361 570.721L268 561.279H283.279L288 546Z" fill="#EDF5E1"/>
<path d="M223 434L227.721 449.279H243L230.639 458.721L235.361 474L223 464.557L210.639 474L215.361 458.721L203 449.279H218.279L223 434Z" fill="#EDF5E1"/>
<path d="M243 314L247.721 329.279H263L250.639 338.721L255.361 354L243 344.557L230.639 354L235.361 338.721L223 329.279H238.279L243 314Z" fill="#EDF5E1"/>
<path d="M301 202L305.721 217.279H321L308.639 226.721L313.361 242L301 232.557L288.639 242L293.361 226.721L281 217.279H296.279L301 202Z" fill="#EDF5E1"/>
<path d="M130 290L134.721 305.279H150L137.639 314.721L142.361 330L130 320.557L117.639 330L122.361 314.721L110 305.279H125.279L130 290Z" fill="#EDF5E1"/>
<path d="M40 215L44.7214 230.279H60L47.6393 239.721L52.3607 255L40 245.557L27.6393 255L32.3607 239.721L20 230.279H35.2787L40 215Z" fill="#EDF5E1"/>
<path d="M183 112L187.721 127.279H203L190.639 136.721L195.361 152L183 142.557L170.639 152L175.361 136.721L163 127.279H178.279L183 112Z" fill="#EDF5E1"/>
<path d="M212 10L216.721 25.2786H232L219.639 34.7213L224.361 50L212 40.5573L199.639 50L204.361 34.7213L192 25.2786H207.279L212 10Z" fill="#EDF5E1"/>
<path d="M105 152L113.262 178.738H140L118.369 195.262L126.631 222L105 205.475L83.3688 222L91.6312 195.262L70 178.738H96.7377L105 152Z" fill="#EDF5E1"/>
<path d="M208 210L218.623 244.377H253L225.188 265.623L235.812 300L208 278.754L180.189 300L190.812 265.623L163 244.377H197.377L208 210Z" fill="#EDF5E1"/>
<path d="M45 285L55.623 319.377H90L62.1885 340.623L72.8115 375L45 353.754L17.1885 375L27.8115 340.623L0 319.377H34.377L45 285Z" fill="#EDF5E1"/>
<path d="M288 85L298.623 119.377H333L305.188 140.623L315.812 175L288 153.754L260.189 175L270.812 140.623L243 119.377H277.377L288 85Z" fill="#EDF5E1"/>
<path d="M105 0L115.623 34.3769H150L122.188 55.623L132.812 90L105 68.7539L77.1885 90L87.8115 55.623L60 34.3769H94.377L105 0Z" fill="#EDF5E1"/>
</svg>
