<svg width="329" height="270" viewBox="0 0 329 270" fill="none" xmlns="http://www.w3.org/2000/svg">
<path d="M70.7283 0L83.2857 22.5H58.1709L70.7283 0Z" fill="#05386B"/>
<path d="M144.192 253.943L159.536 233.242L169.866 256.134L144.192 253.943Z" fill="#05386B"/>
<path d="M28.1626 62.4375L52.1837 71.7608L32.8384 87.7767L28.1626 62.4375Z" fill="#05386B"/>
<path d="M218.618 267.058L217.236 241.328L239.791 252.374L218.618 267.058Z" fill="#05386B"/>
<path d="M98.7148 101.406L117.131 119.428L93.0444 126.541L98.7148 101.406Z" fill="#05386B"/>
<path d="M206.692 213.558L215.544 189.359L231.935 208.388L206.692 213.558Z" fill="#05386B"/>
<path d="M64.1349 186.109L82.5508 204.131L58.4644 211.244L64.1349 186.109Z" fill="#05386B"/>
<path d="M227.692 153.558L236.544 129.359L252.935 148.388L227.692 153.558Z" fill="#05386B"/>
<path d="M179.053 59.9531L185.724 84.8418L161.372 78.6967L179.053 59.9531Z" fill="#05386B"/>
<path d="M154.282 130.544L174.224 114.227L178.639 138.951L154.282 130.544Z" fill="#05386B"/>
<path d="M134.219 24.4453L137.355 68.9416L98.1123 50.6381L134.219 24.4453Z" fill="#05386B"/>
<path d="M113.542 178.004L152.81 156.844L152.267 200.142L113.542 178.004Z" fill="#05386B"/>
<path d="M45.5948 131.484L22.0428 169.366L0.988281 131.529L45.5948 131.484Z" fill="#05386B"/>
<path d="M254.141 75.0625L298.358 80.949L272.528 115.703L254.141 75.0625Z" fill="#05386B"/>
<path d="M284.141 189.062L328.358 194.949L302.528 229.702L284.141 189.062Z" fill="#05386B"/>
</svg>
